<?xml version="1.0" encoding="UTF-8" standalone="no"?>
<!-- Created with Inkscape (http://www.inkscape.org/) -->

<svg
   xmlns:dc="http://purl.org/dc/elements/1.1/"
   xmlns:cc="http://creativecommons.org/ns#"
   xmlns:rdf="http://www.w3.org/1999/02/22-rdf-syntax-ns#"
   xmlns:svg="http://www.w3.org/2000/svg"
   xmlns="http://www.w3.org/2000/svg"
   xmlns:xlink="http://www.w3.org/1999/xlink"
   xmlns:sodipodi="http://sodipodi.sourceforge.net/DTD/sodipodi-0.dtd"
   xmlns:inkscape="http://www.inkscape.org/namespaces/inkscape"
   id="svg2"
   version="1.1"
   inkscape:version="0.48.2 r9819"
   width="256"
   height="256"
   sodipodi:docname="bitcoin.svg"
   inkscape:export-filename="/store/orion/projects/bitcoin/BC_Logo_icon32.png"
   inkscape:export-xdpi="11.25"
   inkscape:export-ydpi="11.25"
   style="display:inline">
  <metadata
     id="metadata8">
    <rdf:RDF>
      <cc:Work
         rdf:about="">
        <dc:format>image/svg+xml</dc:format>
        <dc:type
           rdf:resource="http://purl.org/dc/dcmitype/StillImage" />
        <dc:title />
      </cc:Work>
    </rdf:RDF>
  </metadata>
  <defs
     id="defs6">
    <linearGradient
       id="linearGradient3800">
      <stop
         style="stop-color:#ee962e;stop-opacity:1;"
         offset="0"
         id="stop3802" />
      <stop
         style="stop-color:#cc7611;stop-opacity:1;"
         offset="1"
         id="stop3804" />
    </linearGradient>
    <filter
       inkscape:collect="always"
       id="filter3788">
      <feGaussianBlur
         inkscape:collect="always"
         stdDeviation="7.7328864"
         id="feGaussianBlur3790" />
    </filter>
    <radialGradient
       inkscape:collect="always"
       xlink:href="#linearGradient3800"
       id="radialGradient3806"
       cx="137.01819"
       cy="136.81316"
       fx="137.01819"
       fy="136.81316"
       r="120.22619"
       gradientTransform="matrix(1,0,0,0.99768745,0,0.29784356)"
       gradientUnits="userSpaceOnUse" />
    <radialGradient
       inkscape:collect="always"
       xlink:href="#linearGradient3800"
       id="radialGradient3041"
       gradientUnits="userSpaceOnUse"
       gradientTransform="matrix(1,0,0,0.99768745,0,0.29784356)"
       cx="137.01819"
       cy="136.81316"
       fx="137.01819"
       fy="136.81316"
       r="120.22619" />
  </defs>
  <sodipodi:namedview
     pagecolor="#ffffff"
     bordercolor="#666666"
     borderopacity="1"
     objecttolerance="10"
     gridtolerance="10"
     guidetolerance="10"
     inkscape:pageopacity="0"
     inkscape:pageshadow="2"
     inkscape:window-width="1024"
     inkscape:window-height="724"
     id="namedview4"
     showgrid="false"
     inkscape:zoom="1"
     inkscape:cx="-23.898695"
     inkscape:cy="128"
     inkscape:window-x="-4"
     inkscape:window-y="-3"
     inkscape:window-maximized="1"
     inkscape:current-layer="layer1" />
  <g
     inkscape:groupmode="layer"
     id="layer2"
     inkscape:label="Shadow"
     style="display:inline">
    <path
       style="opacity:0.8176923;fill:#000000;fill-opacity:1;filter:url(#filter3788)"
       d="M 132.875 12.84375 C 122.36722 12.835011 111.3845 13.889264 103.78125 15.875 C 71.152652 24.396598 45.244175 43.573858 28.4375 71.625 C 11.413634 100.03866 7.1148613 136.96857 17.125 168.65625 C 30.802217 211.95231 67.149459 243.81828 111.78125 251.65625 C 116.95547 252.56496 124.40298 252.90656 135.3125 252.6875 C 148.66469 252.41939 152.72166 251.97768 160.25 250 C 192.95598 241.40825 218.79125 222.29418 235.59375 194.25 C 252.61762 165.83634 256.94763 128.90643 246.9375 97.21875 C 233.0115 53.135166 196.03658 21.28469 150.4375 14.0625 C 145.31758 13.251585 139.17967 12.848993 132.875 12.84375 z M 132.40625 51.125 C 136.81453 51.080055 141.44054 51.49024 146.28125 52.34375 C 151.73093 53.304827 156.85865 54.808002 161.65625 56.84375 C 166.45361 58.879756 170.82829 61.423225 174.78125 64.5 L 169.21875 96.0625 C 165.13724 90.715341 160.97316 86.615758 156.71875 83.75 C 152.53955 80.831636 148.0289 78.921804 143.15625 78.0625 C 132.76952 76.231164 124.1861 78.980094 117.40625 86.3125 C 110.70168 93.592295 105.92266 105.34147 103.0625 121.5625 C 100.21353 137.71955 100.66963 150.39592 104.46875 159.59375 C 108.34317 168.73884 115.48829 174.23107 125.875 176.0625 C 130.74767 176.92171 135.61723 176.74902 140.53125 175.5 C 145.52052 174.19819 150.86703 171.72262 156.53125 168.09375 L 153.5 185.25 L 150.96875 199.625 C 146.0736 201.14176 141.04651 202.06016 135.90625 202.34375 C 130.76581 202.6273 125.48096 202.27346 120.03125 201.3125 C 100.66844 197.89831 87.00703 188.93143 79.0625 174.375 C 71.11792 159.81859 69.28046 140.48232 73.53125 116.375 C 77.79328 92.203704 86.14967 74.617734 98.59375 63.65625 C 107.92674 55.435322 119.18142 51.259834 132.40625 51.125 z "
       id="path2986" />
  </g>
  <g
     inkscape:groupmode="layer"
     id="layer1"
     inkscape:label="Front"
     style="display:inline">
    <path
       style="fill:url(#radialGradient3041);fill-opacity:1;display:inline"
       d="M 128.875,8.84375 C 118.36722,8.8350112 107.3845,9.8892639 99.78125,11.875 67.152656,20.396598 41.244175,39.573858 24.4375,67.625 7.4136343,96.038661 3.1148613,132.96857 13.125,164.65625 c 13.677217,43.29606 50.024459,75.16203 94.65625,83 5.17422,0.90871 12.62173,1.25031 23.53125,1.03125 13.35219,-0.26811 17.40916,-0.70982 24.9375,-2.6875 32.70598,-8.59175 58.54125,-27.70582 75.34375,-55.75 17.02387,-28.41366 21.35388,-65.34357 11.34375,-97.03125 C 229.0115,49.135166 192.03658,17.28469 146.4375,10.0625 141.31758,9.2515847 135.17967,8.8489933 128.875,8.84375 z m 3.53125,42.28125 c 4.40828,-0.04494 9.03429,0.36524 13.875,1.21875 5.44968,0.961077 10.5774,2.464252 15.375,4.5 4.79736,2.036006 9.17204,4.579475 13.125,7.65625 l -5.5625,31.5625 c -4.08151,-5.347159 -8.24559,-9.446742 -12.5,-12.3125 -4.1792,-2.918364 -8.68985,-4.828196 -13.5625,-5.6875 -10.38673,-1.831336 -18.97015,0.917594 -25.75,8.25 -6.70457,7.279795 -11.48359,19.02897 -14.34375,35.25 -2.84897,16.15705 -2.39287,28.83342 1.40625,38.03125 3.87442,9.14509 11.01954,14.63732 21.40625,16.46875 4.87267,0.85921 9.74223,0.68652 14.65625,-0.5625 4.98927,-1.30181 10.33578,-3.77738 16,-7.40625 L 153.5,185.25 l -2.53125,14.375 c -4.89515,1.51676 -9.92224,2.43516 -15.0625,2.71875 -5.14044,0.28355 -10.42529,-0.0703 -15.875,-1.03125 -19.36281,-3.41419 -33.02422,-12.38107 -40.96875,-26.9375 -7.94458,-14.55641 -9.78204,-33.89268 -5.53125,-58 4.26203,-24.171296 12.61842,-41.757266 25.0625,-52.71875 9.33299,-8.220928 20.58767,-12.396416 33.8125,-12.53125 z"
       id="path2987"
       inkscape:connector-curvature="0" />
    <flowRoot
       xml:space="preserve"
       id="flowRoot2991"
       style="font-size:12px;font-style:normal;font-weight:normal;line-height:125%;letter-spacing:0px;word-spacing:0px;fill:#000000;fill-opacity:1;stroke:none;font-family:Bitstream Vera Sans"><flowRegion
         id="flowRegion2993"><rect
           id="rect2995"
           width="99"
           height="94"
           x="80"
           y="85" /></flowRegion><flowPara
         id="flowPara2997"></flowPara></flowRoot>    <g
       style="font-size:200px;font-style:normal;font-variant:normal;font-weight:bold;font-stretch:normal;text-align:start;line-height:125%;letter-spacing:0px;word-spacing:0px;writing-mode:lr-tb;text-anchor:start;fill:#000000;fill-opacity:1;stroke:none;font-family:DejaVu Sans Mono;-inkscape-font-specification:DejaVu Sans Mono Bold"
       id="text2999"
       transform="translate(-2,7)" />
    <g
       style="font-size:200px;font-style:normal;font-variant:normal;font-weight:bold;font-stretch:normal;text-align:start;line-height:125%;letter-spacing:0px;word-spacing:0px;writing-mode:lr-tb;text-anchor:start;fill:#000000;fill-opacity:1;stroke:none;display:inline;font-family:DejaVu Sans Mono;-inkscape-font-specification:DejaVu Sans Mono Bold"
       id="text2999-5"
       transform="translate(-2.0000001,6.9999971)" />
  </g>
</svg>
